<?xml version="1.0" standalone="no"?>
<!DOCTYPE svg PUBLIC "-//W3C//DTD SVG 20010904//EN"
 "http://www.w3.org/TR/2001/REC-SVG-20010904/DTD/svg10.dtd">
<svg version="1.0" xmlns="http://www.w3.org/2000/svg"
 width="289.000000pt" height="289.000000pt" viewBox="0 0 289.000000 289.000000"
 preserveAspectRatio="xMidYMid meet">
<metadata>
Created by potrace 1.14, written by Peter Selinger 2001-2017
</metadata>
<g transform="translate(0.000000,289.000000) scale(0.100000,-0.100000)"
fill="#000000" stroke="none">
<path d="M1287 2874 c3 -8 -1 -14 -8 -14 -8 0 -6 -5 6 -13 14 -11 15 -16 5
-22 -7 -4 -15 -3 -19 2 -7 12 -42 13 -35 1 3 -5 9 -6 13 -4 4 3 8 -1 8 -9 0
-16 -16 -15 -35 3 -23 21 -34 13 -12 -10 11 -12 18 -24 15 -27 -3 -2 -12 4
-20 15 -14 18 -15 18 -11 -9 4 -21 2 -26 -7 -19 -13 10 -47 12 -47 2 0 -3 6
-12 13 -19 10 -10 8 -11 -7 -5 -13 5 -17 4 -12 -4 3 -6 2 -13 -3 -17 -6 -3 -8
3 -6 15 2 11 0 20 -6 20 -5 0 -9 -7 -9 -15 0 -13 -4 -14 -20 -5 -11 6 -20 7
-19 3 3 -20 -2 -27 -11 -13 -8 12 -10 11 -7 -5 1 -11 7 -27 12 -35 7 -12 6
-13 -6 -3 -22 18 -55 10 -51 -13 3 -16 2 -16 -14 -3 -10 7 -15 9 -11 3 4 -7
-2 -11 -18 -11 -14 0 -22 4 -18 10 3 6 1 7 -5 3 -6 -4 -8 -14 -5 -23 5 -12 3
-14 -7 -8 -9 6 -11 4 -6 -4 6 -9 12 -8 26 4 12 11 20 13 25 5 4 -6 1 -9 -7 -8
-7 2 -12 -2 -11 -9 2 -7 -6 -10 -18 -8 -14 3 -19 0 -16 -9 3 -7 -1 -13 -9 -13
-10 0 -12 7 -8 21 6 19 5 19 -17 -3 -13 -14 -24 -20 -27 -13 -2 8 -7 8 -17 -1
-9 -8 -10 -18 -3 -32 8 -17 7 -17 -10 2 -14 15 -21 19 -25 10 -7 -19 3 -38 16
-30 7 3 8 2 4 -2 -10 -12 -38 -15 -31 -4 3 5 -2 9 -11 9 -13 0 -14 -4 -4 -21
9 -17 8 -20 -3 -13 -20 14 -65 12 -65 -2 0 -7 5 -11 10 -7 7 4 0 -10 -29 -55
-1 -2 -1 8 0 21 0 14 5 23 10 19 5 -3 6 0 2 7 -6 9 -13 8 -27 -5 -15 -14 -17
-20 -6 -32 10 -13 9 -14 -11 -3 -12 7 -20 17 -16 23 5 7 2 8 -5 3 -9 -5 -6
-14 11 -32 l23 -26 -25 16 c-18 12 -29 13 -40 6 -13 -9 -13 -10 1 -6 9 3 16 0
16 -7 0 -8 -10 -11 -25 -8 -16 3 -23 1 -19 -6 4 -5 0 -13 -9 -16 -8 -3 -12
-10 -9 -16 3 -6 -1 -7 -10 -4 -14 6 -14 8 2 21 16 13 16 13 -4 3 -13 -6 -23
-17 -23 -25 0 -8 -5 -15 -11 -15 -5 0 -8 4 -4 9 3 5 0 13 -6 17 -8 4 -9 3 -5
-4 4 -7 2 -12 -4 -12 -6 0 -8 -5 -4 -11 4 -7 -1 -9 -12 -7 -11 2 -18 10 -16
17 1 7 -2 10 -7 7 -5 -3 -7 -15 -4 -26 3 -11 9 -18 13 -15 5 3 11 2 14 -3 2
-4 -6 -8 -19 -8 -13 0 -22 3 -19 7 2 4 -3 9 -11 12 -11 5 -12 1 -5 -19 6 -15
6 -23 1 -19 -6 3 -14 -2 -19 -12 -8 -14 -13 -15 -25 -5 -11 10 -17 10 -22 2
-4 -7 -16 -10 -26 -7 -11 3 -17 2 -14 -3 3 -4 -2 -10 -10 -14 -8 -3 -15 -10
-15 -16 0 -6 7 -4 16 4 17 18 30 20 38 7 3 -5 -2 -8 -12 -7 -9 0 -16 -5 -15
-11 2 -7 0 -12 -5 -11 -4 1 -16 -3 -28 -9 -17 -10 -26 -9 -45 4 l-24 17 20
-24 c11 -13 15 -20 8 -17 -6 4 -17 -1 -23 -10 -9 -15 -10 -15 -4 6 4 17 3 21
-6 16 -6 -4 -10 -18 -7 -32 2 -13 2 -21 -1 -19 -9 10 -43 -15 -35 -27 10 -17
11 -47 1 -41 -4 3 -8 0 -8 -6 0 -6 -5 -8 -11 -4 -8 4 -8 9 -1 13 13 8 10 37
-4 51 -6 6 -10 3 -11 -10 -1 -11 3 -20 9 -20 7 0 7 -4 1 -12 -24 -30 -3 -64
23 -38 7 7 11 6 11 -4 0 -8 -4 -13 -9 -10 -4 3 -8 0 -8 -5 0 -6 -5 -10 -12 -8
-7 1 -13 -8 -14 -20 -1 -13 4 -23 11 -23 13 0 45 -32 45 -44 0 -5 -8 2 -18 14
-10 13 -23 20 -29 17 -13 -8 -13 -287 0 -287 6 0 5 -5 0 -12 -13 -16 -13 -48
0 -48 6 0 6 -5 0 -12 -13 -16 -13 -48 -1 -48 5 0 6 -6 1 -12 -10 -17 -12 -108
-2 -108 5 0 6 -6 3 -14 -3 -8 -1 -17 5 -21 7 -4 8 1 4 12 -5 14 -3 16 7 6 7
-6 19 -9 27 -6 8 3 20 -2 27 -12 12 -16 13 -16 29 0 16 16 22 9 18 -17 -2 -13
11 -9 23 7 12 16 70 30 61 14 -4 -5 1 -9 10 -9 10 0 13 5 9 13 -4 6 -4 9 1 5
4 -4 15 -2 23 5 13 10 14 9 3 -10 -14 -27 -4 -30 16 -5 8 9 12 11 8 5 -3 -7
-1 -13 4 -13 6 0 11 8 11 18 0 14 2 15 10 2 5 -8 10 -11 10 -5 0 5 5 4 12 -3
14 -14 32 -16 24 -4 -3 5 2 9 10 9 8 0 13 -6 10 -14 -3 -7 -1 -13 4 -13 6 0
10 8 11 18 0 10 3 12 6 5 2 -7 9 -13 14 -13 6 0 8 4 5 8 -3 5 1 9 9 9 20 0 19
-14 -2 -27 -17 -11 -17 -11 0 -6 10 3 21 6 23 6 2 0 4 8 5 18 0 10 3 12 6 5 2
-7 9 -13 14 -13 6 0 8 3 6 8 -3 4 10 7 28 7 18 0 31 -3 29 -7 -3 -4 2 -8 11
-8 10 0 13 5 9 13 -4 6 -4 9 1 5 4 -4 15 -2 23 5 13 10 14 9 3 -10 -14 -27 -4
-30 16 -5 8 9 12 11 8 5 -3 -7 -1 -13 4 -13 6 0 11 8 11 18 0 14 2 15 10 2 5
-8 10 -11 10 -5 0 5 5 4 12 -3 14 -14 32 -16 24 -4 -3 5 2 9 10 9 8 0 13 -6
10 -14 -3 -7 -1 -13 4 -13 6 0 10 8 11 18 0 10 3 12 6 5 2 -7 9 -13 14 -13 6
0 8 4 5 8 -3 5 1 9 9 9 20 0 19 -14 -2 -27 -17 -11 -17 -11 0 -6 10 3 21 6 23
6 2 0 4 8 5 18 0 10 3 12 6 5 2 -7 9 -13 14 -13 6 0 8 3 6 8 -3 4 10 7 28 7
18 0 31 -3 29 -7 -3 -4 2 -8 11 -8 10 0 13 5 9 13 -4 6 -4 9 1 5 4 -4 15 -2
23 5 13 10 14 9 3 -10 -14 -27 -4 -30 16 -5 8 9 12 11 8 5 -3 -7 -1 -13 4 -13
6 0 11 8 11 18 0 14 2 15 10 2 5 -8 10 -11 10 -5 0 5 5 4 12 -3 14 -14 32 -16
24 -4 -3 5 2 9 10 9 8 0 13 -6 10 -14 -3 -7 -1 -13 4 -13 6 0 10 8 11 18 0 10
3 12 6 5 2 -7 9 -13 14 -13 6 0 8 4 5 8 -3 5 1 9 9 9 20 0 19 -14 -2 -26 -20
-12 -13 -14 11 -5 9 3 16 14 17 23 0 10 2 11 6 4 2 -7 9 -13 14 -13 6 0 7 4 4
10 -3 6 1 7 9 4 9 -3 14 -9 11 -13 -2 -4 2 -8 9 -8 8 0 12 6 9 14 -3 7 0 13 6
13 10 0 15 -14 12 -33 -1 -5 3 -6 9 -2 6 3 7 11 4 17 -4 7 -2 8 4 4 24 -15 51
-15 45 0 -3 8 0 14 6 14 10 0 15 -14 12 -33 -1 -5 3 -6 9 -2 6 3 7 12 3 18 -4
7 4 5 17 -4 28 -18 50 -15 50 7 0 8 5 14 11 14 5 0 7 -5 3 -11 -4 -8 1 -9 16
-4 15 5 20 4 16 -4 -4 -6 -2 -11 3 -11 6 0 11 8 12 18 0 10 3 12 6 5 2 -7 9
-13 14 -13 6 0 8 4 5 8 -3 5 1 9 9 9 20 0 19 -14 -2 -27 -17 -11 -17 -11 0 -6
10 3 21 6 23 6 2 0 4 7 4 15 0 8 5 15 11 15 5 0 7 -5 3 -11 -4 -8 1 -9 16 -4
15 5 20 4 16 -4 -4 -6 -2 -11 3 -11 6 0 11 8 12 18 0 10 3 12 6 5 2 -7 9 -13
14 -13 6 0 8 4 5 8 -3 5 1 9 9 9 20 0 19 -14 -2 -27 -17 -11 -17 -11 0 -6 10
3 21 6 23 6 2 0 4 6 4 14 0 8 4 18 10 21 6 3 7 -1 4 -9 -3 -9 -1 -16 5 -16 6
0 11 5 11 11 0 5 5 7 10 4 6 -4 8 -10 6 -14 -3 -4 1 -8 8 -8 8 0 12 6 9 14 -3
7 0 13 6 13 10 0 15 -14 12 -33 -1 -5 3 -6 9 -2 6 3 7 11 4 17 -4 7 -2 8 4 4
24 -15 51 -15 45 0 -3 8 0 14 6 14 10 0 15 -14 12 -33 -1 -5 3 -6 9 -2 6 3 7
11 4 17 -4 6 2 6 15 -1 16 -9 19 -9 16 1 -4 9 5 14 25 14 16 1 30 -3 30 -8 0
-5 -4 -7 -8 -4 -4 2 -14 1 -21 -3 -9 -6 -10 -11 -2 -15 6 -4 11 -2 11 5 0 8 4
8 16 -1 12 -11 15 -11 12 0 -2 7 3 15 11 18 8 3 11 0 7 -7 -5 -7 -1 -9 8 -5 9
3 14 9 11 13 -2 4 3 8 11 8 8 0 13 -6 10 -14 -3 -7 -1 -13 4 -13 6 0 10 8 11
18 0 10 3 12 6 5 2 -7 9 -13 14 -13 6 0 7 5 4 10 -3 6 -1 10 4 10 6 0 11 -5
11 -11 0 -5 4 -7 10 -4 6 3 10 2 10 -3 0 -6 6 -12 13 -15 8 -3 14 1 14 9 0 7
-5 10 -11 7 -6 -3 -7 -2 -3 2 10 12 38 15 31 4 -3 -5 2 -9 11 -9 9 0 14 4 11
8 -3 5 2 9 10 9 8 0 13 -6 10 -14 -3 -7 -1 -13 4 -13 6 0 10 8 10 18 0 10 3
13 8 6 4 -6 15 -13 24 -17 12 -4 15 -2 11 9 -3 7 0 14 6 14 10 0 15 -14 12
-33 -1 -5 3 -6 9 -2 6 3 7 11 4 17 -4 7 -2 8 4 4 24 -15 51 -15 45 0 -3 8 0
14 6 14 10 0 15 -14 12 -33 -1 -5 3 -6 9 -2 6 3 7 12 3 18 -4 7 4 5 17 -4 28
-18 50 -15 50 7 0 8 5 14 11 14 5 0 7 -5 3 -11 -4 -8 1 -9 16 -4 15 5 20 4 16
-4 -4 -6 -2 -11 3 -11 6 0 11 8 12 18 0 10 3 12 6 5 2 -7 9 -13 14 -13 6 0 8
4 5 8 -3 5 1 9 9 9 20 0 19 -14 -2 -27 -17 -11 -17 -11 0 -6 10 3 21 6 23 6 2
0 4 6 4 14 0 8 8 13 18 11 9 -2 21 -4 25 -4 5 -1 5 -7 1 -13 -4 -7 -4 -10 1
-6 4 4 14 3 20 -2 9 -8 14 -6 19 6 3 9 4 19 1 23 -5 8 25 8 40 0 6 -3 16 -4
23 -3 6 1 18 2 26 3 9 1 13 12 12 31 -1 25 -4 29 -21 25 -11 -3 -14 -2 -7 1 6
3 10 10 6 15 -3 5 0 8 7 7 8 -2 14 7 15 20 1 13 -4 22 -14 22 -12 0 -12 -3 -2
-15 7 -9 8 -15 2 -15 -5 0 -13 8 -17 18 -12 27 -14 43 -5 37 5 -3 8 9 7 26 -1
21 3 33 13 36 13 4 13 3 0 -6 -13 -10 -13 -12 0 -21 8 -5 10 -10 5 -10 -6 0
-11 -9 -11 -20 0 -11 5 -19 11 -17 6 2 10 94 10 266 0 241 -1 264 -17 272 -12
7 -18 6 -18 -1 0 -6 7 -13 16 -17 13 -5 13 -7 2 -14 -11 -8 -11 -10 0 -18 11
-7 11 -9 -1 -14 -21 -8 -28 2 -16 24 7 14 6 19 -2 19 -6 0 -9 8 -6 19 3 13 -1
21 -12 24 -14 4 -14 5 1 6 12 1 16 7 12 19 -5 16 -5 16 9 0 8 -10 18 -14 23
-10 4 4 2 -1 -5 -10 -11 -15 -11 -18 1 -18 8 0 14 10 14 24 0 14 -4 22 -9 19
-5 -3 -13 0 -17 8 -7 10 -11 10 -24 -1 -9 -7 -19 -10 -23 -6 -3 3 -2 6 4 6 6
0 13 10 16 23 5 20 5 20 -7 5 -18 -24 -29 -23 -16 2 8 16 6 21 -12 30 -21 10
-21 10 -5 -3 16 -14 16 -15 0 -28 -11 -10 -14 -10 -9 -1 4 7 1 15 -8 18 -9 3
-13 11 -9 18 4 6 -1 5 -11 -3 -14 -12 -19 -12 -26 -2 -4 8 -13 11 -19 7 -7 -5
-9 -1 -5 9 6 14 9 14 27 -2 11 -10 17 -13 14 -6 -4 6 -4 13 0 16 5 2 2 2 -5 1
-7 -2 -15 3 -18 11 -8 19 -24 19 -24 0 0 -8 -5 -15 -11 -15 -5 0 -8 4 -5 9 16
25 -8 40 -71 44 -7 0 -13 6 -13 14 0 11 5 11 20 3 14 -7 20 -7 20 0 0 5 -7 11
-15 11 -32 3 -36 4 -45 19 -6 9 -10 10 -10 3 0 -6 4 -14 10 -18 5 -3 7 -12 4
-20 -4 -8 -11 -12 -16 -9 -6 4 -6 9 2 14 9 6 5 13 -15 26 -21 13 -28 15 -34 5
-6 -10 -10 -9 -14 4 -4 9 -3 13 2 10 5 -3 13 0 17 6 5 8 -3 10 -25 7 -18 -3
-34 -1 -37 4 -3 5 -10 6 -15 3 -5 -4 -9 -2 -9 3 0 6 7 13 16 16 8 3 12 2 9 -4
-3 -6 1 -7 9 -4 9 3 16 11 16 17 0 6 -3 7 -7 4 -3 -4 -13 -1 -21 6 -13 10 -14
9 -7 -2 6 -10 4 -12 -4 -6 -9 5 -10 10 -2 18 6 6 11 16 11 21 0 6 -5 4 -10 -4
-8 -12 -10 -11 -10 7 0 12 -4 24 -9 27 -10 7 -9 25 2 44 8 11 2 16 -16 13 -5
-1 -5 4 -2 10 5 8 10 8 18 0 12 -12 19 -43 8 -36 -4 2 -8 -3 -8 -11 0 -10 3
-12 11 -4 12 12 16 71 4 64 -4 -3 -8 2 -8 11 0 10 5 13 12 9 7 -5 8 -3 2 7
-17 27 -15 49 4 42 14 -5 13 -3 -3 10 -11 9 -16 17 -11 17 4 0 1 11 -8 25 -9
14 -13 31 -9 38 11 18 14 49 4 43 -10 -7 -9 20 2 30 12 12 8 26 -5 18 -7 -4
-8 -3 -4 5 6 8 12 9 20 2 10 -8 13 -4 11 17 -1 27 -1 27 -77 28 -85 1 -107 -6
-84 -25 10 -8 16 -9 21 -1 3 5 10 10 15 10 5 0 -1 -10 -13 -23 l-22 -22 -13
22 c-7 13 -15 23 -18 23 -3 0 -2 -5 1 -10 8 -13 -14 -42 -26 -34 -5 3 -6 -2
-3 -10 3 -9 1 -16 -5 -16 -6 0 -11 8 -12 18 0 14 -2 14 -8 -3 -5 -11 -6 -24
-3 -29 3 -5 -5 -7 -16 -4 -12 4 -20 2 -16 -3 3 -5 11 -9 19 -9 8 0 16 -4 19
-8 2 -4 -7 -8 -21 -7 -32 0 -40 -31 -12 -48 19 -12 26 -28 12 -26 -5 1 -15 1
-23 0 -13 -1 -13 -3 0 -10 8 -6 18 -7 22 -5 4 3 8 0 8 -5 0 -6 -4 -11 -10 -11
-5 0 -10 -5 -10 -11 0 -5 5 -7 10 -4 6 3 10 1 10 -4 0 -6 -5 -11 -11 -11 -5 0
-7 -6 -3 -12 5 -9 2 -9 -9 1 -15 12 -21 9 -18 -11 0 -5 -3 -8 -9 -8 -5 0 -10
4 -10 9 0 14 26 32 35 23 5 -4 5 -1 1 6 -6 10 -11 10 -21 2 -8 -7 -20 -8 -26
-4 -7 4 -9 3 -5 -4 3 -6 2 -13 -4 -17 -6 -4 -7 -11 -4 -17 4 -7 2 -8 -5 -4 -9
6 -9 11 -1 21 7 8 7 15 1 19 -5 3 -12 0 -15 -6 -2 -7 -4 -2 -3 12 2 21 -2 24
-20 22 -18 -3 -22 0 -16 15 6 16 5 17 -12 3 -13 -10 -16 -11 -11 -2 5 9 3 13
-5 11 -8 -1 -25 -1 -39 0 -25 2 -25 2 5 16 30 14 30 14 3 9 -18 -4 -33 0 -44
10 -8 9 -20 14 -25 11 -5 -4 -9 1 -9 10 0 14 5 13 31 -6 23 -16 33 -19 42 -10
9 9 8 10 -7 5 -15 -6 -17 -4 -11 7 4 8 5 11 0 7 -4 -4 -17 -2 -29 4 -11 7 -29
12 -38 13 -15 1 -16 -1 -5 -14 10 -14 10 -14 -4 -4 -9 7 -18 10 -21 8 -3 -3
-3 5 -1 18 3 17 -1 26 -14 31 -14 6 -16 5 -5 -5 6 -7 12 -17 12 -22 0 -5 -7
-1 -16 8 -9 9 -23 14 -30 11 -8 -3 -13 -2 -13 2 1 4 1 14 -1 22 -1 11 -4 9
-10 -5 -7 -16 -9 -17 -9 -3 -1 9 -6 20 -13 24 -8 5 -9 2 -5 -10 4 -10 3 -15
-3 -11 -6 3 -10 13 -10 20 0 11 -9 14 -32 11 -28 -3 -30 -2 -15 9 9 6 14 15
10 18 -3 4 -13 1 -22 -6 -14 -10 -14 -10 -3 5 8 9 20 14 28 11 8 -3 14 -1 14
5 0 5 -62 9 -154 10 -129 0 -154 -2 -149 -14z m46 -14 c4 0 5 5 2 10 -3 6 -4
10 -1 10 16 0 13 -21 -5 -30 -17 -10 -20 -9 -14 1 6 9 3 11 -8 6 -11 -4 -14
-2 -10 9 4 11 9 12 16 5 6 -6 15 -11 20 -11z m964 6 c0 -8 -8 -11 -21 -8 -19
5 -19 6 0 13 10 4 19 8 20 8 0 1 1 -5 1 -13z m-170 -41 c0 -8 -4 -12 -9 -9 -4
3 -8 0 -8 -7 0 -7 -3 -9 -6 -6 -4 4 -1 13 6 22 15 19 17 19 17 0z m-73 -83 c7
-11 -11 -38 -20 -29 -14 13 -13 37 1 37 8 0 16 -4 19 -8z m-967 -27 c0 -8 -4
-15 -9 -15 -10 0 -11 14 -1 23 9 10 10 9 10 -8z m1198 -66 c0 -32 -2 -36 -17
-28 -21 11 -24 21 -5 13 14 -5 17 22 4 42 -3 6 -1 11 6 11 8 0 12 -15 12 -38z
m-351 -14 c-4 -8 -11 -12 -16 -9 -6 4 -5 10 3 15 19 12 19 11 13 -6z m-1044
-45 c0 -5 -4 -10 -10 -10 -5 0 -10 5 -10 10 0 6 5 10 10 10 6 0 10 -4 10 -10z
m-123 -75 c4 -4 3 -5 -4 -2 -6 4 -13 2 -15 -5 -3 -8 -6 -6 -10 4 -7 17 15 19
29 3z m1763 -220 c0 -12 -19 -12 -23 0 -4 9 -1 12 9 8 7 -3 14 -7 14 -8z
m-2360 -255 c0 -5 -2 -10 -4 -10 -3 0 -8 5 -11 10 -3 6 -1 10 4 10 6 0 11 -4
11 -10z m2552 3 c-9 -4 -10 -8 -2 -18 8 -10 8 -15 -1 -21 -8 -5 -9 -3 -4 6 6
10 4 12 -8 7 -10 -4 -16 -2 -14 6 2 14 18 27 32 26 6 0 4 -3 -3 -6z m-29 -58
c-3 -9 -8 -14 -10 -11 -3 3 -2 9 2 15 9 16 15 13 8 -4z m-2512 -17 c6 -13 8
-19 3 -15 -4 4 -14 -3 -21 -15 l-12 -23 1 27 c1 15 6 24 10 22 4 -3 8 -1 8 5
0 5 -6 12 -12 14 -10 4 -10 6 -1 6 7 1 18 -9 24 -21z m2539 12 c-13 -9 -13
-11 0 -20 12 -8 12 -10 1 -10 -11 0 -11 -3 0 -17 12 -16 12 -17 -2 -5 -9 7
-15 22 -14 35 3 28 3 27 18 27 8 0 7 -4 -3 -10z m-39 -43 c-10 -9 -11 -8 -5 6
3 10 9 15 12 12 3 -3 0 -11 -7 -18z m-2485 -9 c4 -7 4 -10 -1 -6 -5 5 -15 -2
-23 -14 -13 -18 -13 -23 -1 -32 21 -16 20 -32 -2 -33 -10 -1 -19 3 -19 8 0 6
5 7 10 4 13 -8 13 8 -1 22 -8 8 -6 18 6 37 20 30 21 30 31 14z m2531 -43 c0
-8 -4 -12 -9 -9 -12 8 -10 -10 4 -24 7 -7 8 -12 2 -12 -6 0 -16 11 -22 25 -14
30 -16 46 -3 26 6 -9 11 -10 15 -2 4 6 0 14 -8 17 -9 3 -16 11 -16 17 0 5 8 3
18 -6 10 -10 19 -24 19 -32z m-2527 11 c0 -3 -4 -8 -10 -11 -5 -3 -10 -1 -10
4 0 6 5 11 10 11 6 0 10 -2 10 -4z m2493 -71 c-3 -9 -8 -14 -10 -11 -3 3 -2 9
2 15 9 16 15 13 8 -4z m-2513 -10 c-10 -12 -10 -15 0 -15 8 0 11 -2 8 -5 -8
-8 -38 6 -38 17 0 5 5 6 10 3 6 -3 10 -1 10 4 0 6 5 11 11 11 8 0 8 -5 -1 -15z
m2546 3 c4 -7 3 -8 -4 -4 -16 9 -15 -7 0 -22 7 -7 9 -12 5 -12 -4 0 -10 -1
-14 -2 -8 -4 -14 33 -7 44 7 11 12 10 20 -4z m-45 -41 c-10 -9 -11 -8 -5 6 3
10 9 15 12 12 3 -3 0 -11 -7 -18z m-2514 -17 c-3 -12 5 -35 20 -57 19 -28 20
-33 6 -21 -15 14 -22 15 -33 5 -12 -10 -12 -9 -1 5 7 9 10 22 6 28 -11 18 -13
60 -2 60 5 0 7 -9 4 -20z m2558 -2 c5 4 5 2 1 -5 -8 -14 -36 -6 -36 9 0 7 5 6
13 -1 8 -6 18 -7 22 -3z m-2515 -2 c0 -2 -7 -7 -16 -10 -8 -3 -12 -2 -9 4 6
10 25 14 25 6z m2508 -29 c15 4 15 3 2 -6 -12 -9 -13 -12 -1 -20 7 -5 9 -11 4
-14 -9 -6 -34 34 -32 51 0 4 3 2 5 -5 3 -7 13 -9 22 -6z m-2533 -77 c1 -11 -1
-18 -3 -15 -3 3 -12 -1 -21 -8 -14 -10 -14 -10 -3 4 7 9 12 21 11 25 -1 5 -1
13 0 18 2 16 15 -3 16 -24z m2508 15 c-3 -9 -8 -14 -10 -11 -3 3 -2 9 2 15 9
16 15 13 8 -4z m-12 -48 c-10 -9 -11 -8 -5 6 3 10 9 15 12 12 3 -3 0 -11 -7
-18z m-2480 -14 c11 -15 11 -16 -1 -5 -25 21 -33 13 -14 -15 12 -20 13 -24 3
-16 -12 10 -18 10 -29 0 -12 -10 -12 -9 -2 4 7 9 12 21 11 25 -5 29 12 32 32
7z m2489 -43 c6 -11 8 -20 6 -20 -3 0 -10 9 -16 20 -6 11 -8 20 -6 20 3 0 10
-9 16 -20z m-2517 -21 c-8 -8 -13 -7 -18 2 -5 8 -4 10 3 5 7 -4 12 -2 12 5 0
7 3 9 7 6 4 -4 2 -12 -4 -18z m17 -29 c0 -5 -2 -10 -4 -10 -3 0 -8 5 -11 10
-3 6 -1 10 4 10 6 0 11 -4 11 -10z m-8 -25 c2 3 5 -2 5 -10 0 -19 -14 -10 -27
18 -10 20 -10 20 3 5 8 -10 16 -16 19 -13z m2545 -2 c0 -10 -4 -10 -14 -1 -10
8 -12 8 -8 -4 4 -9 0 -15 -8 -15 -9 0 -12 7 -10 18 6 20 40 22 40 2z m-2440
-35 c-3 -8 -6 -5 -6 6 -1 11 2 17 5 13 3 -3 4 -12 1 -19z m-37 8 c0 -3 -4 -8
-10 -11 -5 -3 -10 -1 -10 4 0 6 5 11 10 11 6 0 10 -2 10 -4z m1208 -8 c-2 -5
-8 -9 -13 -9 -5 0 -11 4 -13 9 -1 5 4 9 13 9 9 0 14 -4 13 -9z m960 0 c-2 -5
-8 -9 -13 -9 -5 0 -11 4 -13 9 -1 5 4 9 13 9 9 0 14 -4 13 -9z m207 2 c3 -5 1
-10 -4 -10 -6 0 -11 5 -11 10 0 6 2 10 4 10 3 0 8 -4 11 -10z"/>
<path d="M1589 2853 c-13 -16 -12 -17 4 -4 16 13 21 21 13 21 -2 0 -10 -8 -17
-17z"/>
<path d="M2285 2809 c-3 -3 3 -13 13 -20 9 -7 14 -9 10 -5 -4 5 -3 14 2 21 7
8 5 12 -6 12 -8 0 -17 -4 -19 -8z"/>
<path d="M2287 2743 c-13 -12 -7 -23 11 -22 10 0 12 3 4 6 -6 2 -10 9 -6 14 6
10 0 12 -9 2z"/>
<path d="M2295 2500 c3 -5 8 -10 11 -10 2 0 4 5 4 10 0 6 -5 10 -11 10 -5 0
-7 -4 -4 -10z"/>
<path d="M390 2319 c0 -5 5 -7 10 -4 6 3 10 8 10 11 0 2 -4 4 -10 4 -5 0 -10
-5 -10 -11z"/>
<path d="M271 2266 c-9 -11 -9 -16 0 -22 8 -5 9 -3 4 6 -6 10 -4 12 8 7 11 -4
14 -2 10 9 -6 17 -8 17 -22 0z"/>
<path d="M191 2204 c0 -11 3 -14 6 -6 3 7 2 16 -1 19 -3 4 -6 -2 -5 -13z"/>
<path d="M150 2190 c18 -12 30 -13 30 -2 0 4 -10 9 -22 9 -18 2 -20 0 -8 -7z"/>
<path d="M2656 1443 c-6 -14 -5 -15 5 -6 7 7 10 15 7 18 -3 3 -9 -2 -12 -12z"/>
<path d="M322 1441 c-11 -7 -11 -9 0 -14 9 -3 15 1 15 9 0 8 -1 14 -1 14 -1 0
-7 -4 -14 -9z"/>
<path d="M446 1434 c-11 -8 -16 -14 -10 -14 13 0 39 18 34 24 -3 2 -14 -2 -24
-10z"/>
<path d="M642 1441 c-11 -7 -11 -9 0 -14 9 -3 15 1 15 9 0 8 -1 14 -1 14 -1 0
-7 -4 -14 -9z"/>
<path d="M766 1434 c-11 -8 -16 -14 -10 -14 13 0 39 18 34 24 -3 2 -14 -2 -24
-10z"/>
<path d="M962 1441 c-11 -7 -11 -9 0 -14 9 -3 15 1 15 9 0 8 -1 14 -1 14 -1 0
-7 -4 -14 -9z"/>
<path d="M1086 1434 c-11 -8 -16 -14 -10 -14 13 0 39 18 34 24 -3 2 -14 -2
-24 -10z"/>
<path d="M2565 1439 c-4 -6 -5 -12 -2 -15 2 -3 7 2 10 11 7 17 1 20 -8 4z"/>
<path d="M250 1230 c0 -5 5 -10 11 -10 5 0 7 5 4 10 -3 6 -8 10 -11 10 -2 0
-4 -4 -4 -10z"/>
<path d="M313 1219 c-2 -23 3 -25 10 -4 4 8 3 16 -1 19 -4 3 -9 -4 -9 -15z"/>
<path d="M370 1230 c0 -5 5 -10 11 -10 5 0 7 5 4 10 -3 6 -8 10 -11 10 -2 0
-4 -4 -4 -10z"/>
<path d="M469 1223 c-13 -16 -12 -17 4 -4 9 7 17 15 17 17 0 8 -8 3 -21 -13z"/>
<path d="M613 1225 c1 -11 6 -25 9 -31 4 -6 1 -11 -7 -11 -8 0 -12 4 -9 9 8
13 -29 6 -38 -7 -5 -6 -8 -5 -8 3 0 6 -5 12 -11 12 -5 0 -8 -4 -5 -8 3 -5 -1
-9 -9 -9 -8 0 -12 4 -9 9 3 4 1 8 -5 8 -6 0 -8 8 -5 18 5 14 4 15 -5 2 -6 -8
-11 -12 -11 -8 0 4 -12 1 -26 -7 -18 -9 -34 -11 -49 -5 -29 11 -54 7 -66 -11
-7 -11 -9 -11 -9 -1 0 7 -5 10 -12 6 -7 -4 -8 -3 -4 5 4 6 12 9 17 6 5 -4 9
-1 9 4 0 16 -15 13 -30 -4 -6 -8 -9 -20 -5 -27 4 -7 0 -4 -9 6 -8 10 -17 24
-20 30 -3 7 -8 6 -14 -3 -6 -8 -17 -11 -27 -7 -12 4 -16 2 -12 -8 4 -10 1 -13
-9 -9 -10 4 -12 0 -8 -13 8 -20 6 -19 -16 9 -10 14 -11 17 0 15 7 -2 15 4 17
12 4 13 3 13 -6 0 -8 -11 -11 -12 -11 -2 0 10 -4 10 -15 -2 -9 -8 -22 -13 -29
-10 -7 3 -16 -2 -20 -11 -7 -19 1 -38 14 -30 5 3 12 -5 16 -17 12 -36 13 -49
3 -42 -5 3 -7 10 -4 15 4 5 -2 9 -12 9 -15 0 -16 2 -3 10 13 9 13 10 -1 10
-13 0 -15 -14 -14 -87 0 -49 4 -87 8 -85 4 1 10 2 13 2 4 0 1 7 -6 15 -7 9 -8
15 -2 15 5 0 12 -7 16 -15 3 -8 12 -12 21 -9 10 4 15 0 15 -10 0 -23 -4 -31
-13 -28 -5 1 -6 -2 -2 -8 5 -8 11 -8 21 1 7 6 21 9 29 5 13 -5 14 -2 4 17 -11
19 -10 20 3 10 11 -10 17 -10 28 0 12 10 12 9 1 -5 -10 -13 -10 -18 -2 -18 7
0 9 -5 5 -12 -4 -7 -3 -8 5 -4 6 4 9 11 6 16 -3 5 -1 11 5 15 5 3 10 -1 10
-10 0 -13 2 -14 14 -3 8 7 12 16 10 20 -2 4 0 9 5 12 10 7 9 -13 -2 -31 -4 -6
-2 -15 4 -19 8 -4 9 -3 5 4 -4 7 -1 12 9 12 9 0 14 4 10 9 -3 5 0 13 6 17 8 5
9 3 4 -6 -6 -10 -4 -12 10 -6 18 6 18 6 -1 -15 l-19 -22 23 14 c19 12 24 12
31 1 7 -11 9 -11 14 2 4 9 1 15 -5 13 -6 -1 -12 4 -14 11 -1 7 0 8 2 3 3 -5
17 -7 32 -5 22 4 25 3 15 -7 -7 -7 -13 -17 -13 -23 0 -5 9 1 20 14 18 21 26
16 21 -13 -1 -5 3 -6 9 -2 6 4 8 15 5 25 -3 10 -1 21 4 25 7 4 8 -1 4 -11 -5
-13 -3 -15 7 -9 10 6 12 3 8 -13 -4 -15 -3 -20 5 -15 7 4 17 8 22 9 6 1 19 6
29 10 15 6 17 4 11 -7 -4 -8 -5 -11 0 -7 4 4 15 2 24 -4 13 -10 14 -10 4 2
-17 18 -16 27 2 27 8 0 12 -4 9 -9 -3 -4 1 -8 10 -8 8 0 16 -5 18 -12 3 -8 7
-6 11 5 4 10 2 16 -5 14 -6 -1 -12 4 -14 11 -1 7 0 8 2 3 3 -5 17 -7 32 -5 22
4 25 3 15 -7 -7 -7 -13 -17 -13 -23 0 -5 9 1 20 14 18 21 26 16 21 -13 -1 -5
3 -6 9 -2 5 3 8 16 6 28 -1 12 -1 16 1 9 3 -7 9 -9 15 -6 7 5 9 0 6 -14 -4
-15 -3 -20 5 -15 7 4 17 8 22 9 6 1 19 6 29 10 15 6 17 4 11 -7 -4 -8 -5 -11
0 -7 4 4 15 2 24 -4 13 -10 14 -10 4 2 -17 18 -16 27 2 27 8 0 12 -4 9 -9 -3
-4 1 -8 10 -8 8 0 16 -5 18 -12 3 -8 7 -6 11 5 4 10 2 16 -5 14 -6 -1 -12 4
-13 11 -2 7 -1 8 1 3 3 -5 17 -7 32 -5 22 4 25 3 15 -7 -7 -7 -13 -17 -13 -23
0 -5 9 1 20 14 18 21 26 16 21 -13 -1 -5 3 -6 9 -2 5 3 8 16 6 28 -1 12 -1 16
1 9 3 -7 9 -9 15 -6 7 5 9 0 6 -14 -4 -15 -3 -20 5 -15 7 4 17 8 22 9 6 1 19
6 29 10 15 6 17 4 11 -7 -4 -8 -5 -11 0 -7 4 4 15 2 24 -4 13 -10 14 -10 4 2
-17 18 -16 27 2 27 8 0 12 -4 9 -9 -3 -4 1 -8 10 -8 8 0 16 -5 18 -12 3 -8 7
-6 11 5 4 10 2 16 -5 14 -6 -1 -12 4 -13 11 -2 7 -1 8 1 3 3 -5 17 -7 32 -5
22 4 25 3 15 -7 -7 -7 -13 -17 -13 -23 0 -5 9 1 20 14 19 22 26 16 20 -15 -1
-5 4 -5 10 1 9 9 9 18 0 35 -10 21 -10 22 3 7 8 -10 18 -14 22 -10 4 4 5 -4 2
-17 -4 -17 -3 -21 5 -13 6 6 17 8 24 5 8 -3 14 0 14 7 0 6 -4 9 -9 5 -5 -3
-12 -2 -15 3 -2 4 14 8 37 7 25 0 41 -5 40 -11 -1 -6 5 -11 13 -11 17 0 18 9
2 26 -11 11 -10 12 2 5 8 -4 26 -8 40 -8 14 -1 24 -6 23 -12 -1 -6 5 -11 13
-11 17 0 18 9 2 26 -11 11 -10 12 2 5 8 -4 26 -8 40 -8 14 -1 24 -6 23 -12 -1
-6 5 -11 13 -11 17 0 18 9 2 26 -11 11 -10 12 2 5 8 -4 26 -8 40 -8 14 -1 24
-6 23 -12 -1 -6 5 -11 13 -11 17 0 18 9 2 26 -11 11 -10 12 2 5 8 -4 26 -8 40
-8 14 -1 24 -6 23 -12 -1 -6 5 -11 13 -11 17 0 18 9 2 26 -11 11 -10 12 2 5 8
-4 26 -8 40 -8 14 -1 24 -6 23 -12 -1 -6 5 -11 13 -11 17 0 18 9 2 26 -11 11
-10 12 2 5 8 -4 26 -8 40 -8 14 -1 24 -6 23 -12 -1 -6 5 -11 13 -11 17 0 18 9
2 26 -11 11 -10 12 2 5 8 -4 26 -8 40 -8 15 -1 24 -6 22 -14 -1 -8 2 -11 8 -7
6 4 19 1 28 -7 16 -12 16 -11 2 7 -8 11 -19 23 -25 27 -6 5 -6 8 2 8 6 0 15
-5 18 -10 4 -6 11 -7 17 -4 7 5 8 2 3 -6 -6 -10 -4 -12 11 -6 10 4 30 10 43
12 21 4 23 3 11 -11 -11 -13 -10 -15 4 -9 9 3 16 11 16 17 0 6 7 2 16 -9 14
-18 15 -18 8 5 l-7 25 26 -27 c20 -23 26 -25 31 -12 3 9 2 13 -3 10 -15 -9
-25 15 -12 28 9 9 11 8 6 -5 -6 -14 -2 -16 22 -12 22 4 26 3 16 -7 -7 -7 -13
-17 -13 -23 0 -5 9 1 20 14 18 21 26 16 21 -13 -1 -5 3 -6 9 -2 6 4 8 16 5 28
-2 12 -2 16 1 9 3 -6 11 -9 16 -5 7 4 9 -2 6 -15 -4 -15 -3 -20 5 -15 7 4 17
8 22 9 6 1 19 6 29 10 15 6 17 4 11 -7 -4 -8 -5 -11 0 -7 4 4 15 2 24 -4 13
-10 14 -10 4 2 -17 18 -16 27 2 27 8 0 12 -4 9 -9 -3 -4 1 -8 10 -8 8 0 16 -5
18 -12 3 -7 7 -5 11 6 4 9 3 15 -2 11 -15 -9 -25 15 -12 28 9 9 11 8 6 -5 -6
-14 -2 -16 22 -12 22 4 26 3 16 -7 -7 -7 -13 -17 -13 -23 0 -5 9 1 20 14 18
21 26 16 21 -13 -1 -5 3 -6 9 -2 6 4 8 16 5 28 -2 12 -2 16 1 9 3 -6 11 -9 16
-5 7 4 9 -2 6 -15 -4 -15 -3 -20 5 -15 7 4 17 8 22 9 6 1 19 6 29 10 15 6 17
4 11 -7 -4 -8 -5 -11 0 -7 4 4 15 2 24 -4 13 -10 14 -10 4 2 -20 21 -16 26 20
25 17 0 36 4 40 10 5 6 7 4 4 -5 -2 -9 -14 -15 -30 -14 -15 1 -24 -2 -21 -7 2
-4 12 -5 21 -2 12 5 14 3 8 -8 -6 -11 -5 -12 6 -1 16 15 33 16 23 0 -4 -7 -3
-8 5 -4 6 4 9 12 6 17 -4 5 1 9 10 9 10 0 13 -5 9 -12 -6 -10 -5 -10 8 -1 8 7
19 9 23 5 5 -4 5 -1 1 6 -4 7 -13 9 -19 5 -7 -4 -6 0 2 10 15 18 26 23 16 7
-3 -5 -1 -10 4 -10 10 0 15 20 12 48 -2 15 11 16 27 0 6 -6 15 -8 19 -5 4 4
-3 14 -15 23 -22 15 -22 34 1 34 8 0 8 -3 -2 -9 -9 -6 -10 -11 -2 -15 13 -8
13 -8 16 22 2 16 -2 21 -11 18 -8 -3 -14 -1 -14 4 0 6 6 10 13 10 9 0 13 12
11 38 -1 20 -3 39 -4 42 -1 3 -2 8 -2 11 1 12 -59 3 -68 -11 -13 -21 -12 -3 1
22 7 12 7 18 1 14 -6 -3 -12 -3 -15 1 -2 5 -2 2 -1 -4 2 -7 0 -12 -4 -12 -4 1
-9 0 -12 -1 -21 -8 -39 -7 -33 3 4 6 0 8 -9 5 -8 -4 -21 -2 -29 4 -11 8 -11 9
3 4 10 -3 20 -1 22 3 3 4 -9 7 -27 7 -18 -1 -35 3 -39 8 -5 7 -8 6 -8 -2 0 -7
-4 -11 -9 -7 -5 3 -12 1 -15 -4 -3 -5 8 -7 24 -6 27 2 29 1 18 -13 -11 -14
-10 -15 7 -8 16 6 17 5 8 -5 -10 -10 -16 -9 -29 2 -9 8 -20 13 -23 13 -3 -1
-12 1 -19 4 -7 2 -15 2 -18 -1 -4 -3 -17 -2 -31 4 -16 6 -22 5 -18 -1 3 -6 -1
-7 -9 -4 -9 3 -14 9 -12 13 3 4 0 13 -5 21 -7 12 -8 11 -6 -5 1 -11 6 -25 9
-31 4 -6 1 -11 -7 -11 -8 0 -12 4 -9 9 8 13 -29 6 -38 -7 -5 -6 -8 -5 -8 3 0
6 -5 12 -11 12 -5 0 -8 -4 -5 -8 3 -5 -1 -9 -9 -9 -8 0 -12 4 -9 9 3 4 1 8 -5
8 -6 0 -8 8 -5 18 5 14 4 15 -5 2 -6 -8 -11 -11 -11 -7 0 4 -9 3 -19 -3 -13
-7 -22 -7 -26 0 -3 5 -11 10 -16 10 -6 0 -3 -7 5 -16 9 -8 16 -18 16 -22 0 -3
-5 -1 -12 6 -13 13 -32 16 -24 4 2 -4 -4 -9 -15 -9 -15 -1 -19 3 -14 16 4 15
0 19 -20 19 -14 0 -25 -4 -25 -9 0 -4 9 -6 19 -4 14 3 18 -1 14 -12 -4 -11 -8
-11 -13 -3 -6 9 -9 9 -14 1 -11 -17 -26 -3 -19 17 6 15 5 15 -10 3 -13 -10
-14 -17 -7 -26 8 -9 8 -15 0 -20 -6 -4 -9 -1 -8 6 2 7 -1 13 -7 14 -5 0 -15 4
-22 8 -6 4 -14 3 -18 -3 -3 -5 -1 -10 6 -10 7 0 9 -3 6 -6 -4 -4 -13 -2 -20 4
-8 7 -17 9 -20 5 -4 -3 -7 0 -7 8 0 11 -2 11 -10 -1 -8 -12 -10 -12 -10 -1 0
10 -3 11 -13 2 -16 -13 -28 -5 -20 15 4 12 1 12 -22 0 -20 -10 -35 -12 -52 -5
-32 12 -42 11 -23 -1 11 -8 8 -9 -12 -6 -18 3 -28 0 -28 -7 0 -8 -3 -8 -9 1
-4 8 -11 13 -15 13 -24 -3 -28 0 -17 13 8 10 9 16 1 21 -6 4 -9 1 -8 -6 4 -16
-24 -19 -34 -4 -5 6 -8 5 -8 -3 0 -7 -4 -11 -9 -7 -5 3 -12 1 -15 -4 -3 -5 8
-7 24 -6 27 2 29 1 18 -13 -11 -14 -10 -15 7 -8 16 6 17 5 8 -5 -10 -10 -15
-9 -28 1 -8 7 -15 9 -15 5 0 -4 -6 -3 -12 3 -7 6 -40 10 -73 10 -34 -1 -72 2
-85 6 -20 6 -22 5 -10 -4 12 -8 9 -9 -12 -6 -18 3 -28 0 -28 -7 0 -8 -3 -8 -9
1 -4 8 -11 13 -15 13 -24 -3 -28 0 -17 13 8 10 9 16 1 21 -6 4 -9 1 -8 -6 4
-16 -24 -19 -34 -4 -5 6 -8 5 -8 -3 0 -7 -4 -11 -9 -7 -5 3 -12 1 -15 -4 -3
-5 8 -7 24 -6 27 2 29 1 18 -13 -11 -14 -10 -15 7 -8 16 6 17 5 8 -5 -10 -10
-15 -9 -28 1 -8 7 -15 9 -15 5 0 -4 -6 -2 -14 4 -8 7 -20 11 -28 10 -31 -4
-79 2 -74 9 2 4 0 14 -5 22 -7 12 -8 11 -6 -5 1 -11 6 -25 9 -31 4 -6 1 -11
-7 -11 -8 0 -12 4 -9 9 8 13 -29 6 -38 -7 -5 -6 -8 -5 -8 3 0 6 -5 12 -11 12
-5 0 -8 -4 -5 -8 3 -5 -1 -9 -9 -9 -8 0 -12 4 -9 9 3 4 1 8 -5 8 -6 0 -9 6 -7
13 1 6 1 9 -1 4 -3 -4 -9 -5 -13 -2 -5 3 -12 0 -16 -6 -5 -8 -3 -9 6 -4 8 5
11 4 7 -2 -6 -10 -50 -9 -88 2 -19 5 -21 4 -9 -5 12 -8 9 -9 -12 -6 -18 3 -28
0 -28 -7 0 -8 -3 -8 -9 1 -4 8 -11 13 -15 13 -24 -3 -28 0 -17 13 8 10 9 16 1
21 -6 4 -9 1 -8 -6 4 -16 -24 -19 -34 -4 -5 6 -8 5 -8 -3 0 -7 -4 -11 -9 -7
-5 3 -12 1 -15 -4 -3 -5 8 -7 24 -6 27 2 29 1 18 -13 -11 -14 -10 -15 7 -8 16
6 17 5 8 -5 -10 -10 -15 -9 -28 1 -8 7 -15 9 -15 5 0 -4 -6 -2 -14 4 -8 7 -20
11 -28 10 -31 -4 -79 2 -74 9 2 4 0 14 -5 22 -7 12 -8 11 -6 -5 1 -11 6 -25 9
-31 4 -6 1 -11 -7 -11 -8 0 -12 4 -9 9 8 13 -29 6 -38 -7 -5 -6 -8 -5 -8 3 0
6 -5 12 -11 12 -5 0 -8 -4 -5 -8 3 -5 -1 -9 -9 -9 -8 0 -12 4 -9 9 3 4 1 8 -5
8 -6 0 -9 6 -7 13 1 6 1 9 -1 4 -3 -4 -9 -5 -13 -2 -5 3 -12 0 -16 -6 -5 -8
-3 -9 6 -4 8 5 11 4 6 -3 -4 -6 -13 -9 -21 -6 -8 4 -13 9 -11 13 3 4 0 13 -5
21 -7 12 -8 11 -6 -5z m1642 -25 c-3 -5 -12 -10 -18 -10 -7 0 -6 4 3 10 19 12
23 12 15 0z m-2055 -22 c0 -4 -3 -8 -7 -9 -5 0 -16 -2 -25 -4 -17 -3 -24 6
-13 16 7 8 45 5 45 -3z m310 7 c0 -2 -10 -9 -22 -15 -22 -11 -22 -10 -4 4 21
17 26 19 26 11z m155 -5 c-3 -5 -12 -10 -18 -10 -7 0 -6 4 3 10 19 12 23 12
15 0z m485 5 c0 -2 -10 -9 -22 -15 -22 -11 -22 -10 -4 4 21 17 26 19 26 11z
m1115 -5 c-3 -5 -14 -10 -23 -9 -14 0 -13 2 3 9 27 11 27 11 20 0z m-1875 -4
c0 -3 -4 -8 -10 -11 -5 -3 -10 -1 -10 4 0 6 5 11 10 11 6 0 10 -2 10 -4z m640
0 c0 -3 -4 -8 -10 -11 -5 -3 -10 -1 -10 4 0 6 5 11 10 11 6 0 10 -2 10 -4z
m480 0 c0 -3 -4 -8 -10 -11 -5 -3 -10 -1 -10 4 0 6 5 11 10 11 6 0 10 -2 10
-4z m320 0 c0 -3 -4 -8 -10 -11 -5 -3 -10 -1 -10 4 0 6 5 11 10 11 6 0 10 -2
10 -4z m851 -19 c-10 -9 -11 -8 -5 6 3 10 9 15 12 12 3 -3 0 -11 -7 -18z m45
-4 c-7 -7 -26 7 -26 19 0 6 6 6 15 -2 9 -7 13 -15 11 -17z m-2519 -8 c0 -8 -4
-12 -9 -9 -4 3 -8 9 -8 15 0 5 4 9 8 9 5 0 9 -7 9 -15z m2513 -6 c12 -9 12
-10 -3 -5 -12 4 -17 2 -14 -6 2 -7 10 -12 16 -10 7 1 10 -2 6 -7 -9 -16 -35
-1 -35 20 0 21 8 24 30 8z m-2552 -74 c0 -32 -9 -26 -12 9 -2 14 0 23 4 21 4
-3 8 -16 8 -30z m2532 29 c0 -8 -19 -13 -24 -6 -3 5 1 9 9 9 8 0 15 -2 15 -3z
m-2530 -74 c0 -5 -2 -10 -4 -10 -3 0 -8 5 -11 10 -3 6 -1 10 4 10 6 0 11 -4
11 -10z m23 -15 c-3 -9 -8 -14 -10 -11 -3 3 -2 9 2 15 9 16 15 13 8 -4z m377
-45 c-12 -23 -16 -24 -26 -8 -4 6 -3 8 3 5 6 -4 13 0 17 8 3 8 8 15 11 15 3 0
1 -9 -5 -20z m233 -11 c-8 -8 -13 -7 -18 2 -6 8 -4 10 5 4 10 -6 12 -4 6 11
-6 15 -5 17 5 7 9 -10 10 -16 2 -24z m240 0 c-8 -8 -13 -7 -18 2 -6 8 -4 10 5
4 10 -6 12 -4 6 11 -6 15 -5 17 5 7 9 -10 10 -16 2 -24z m1200 0 c-8 -8 -13
-7 -18 2 -5 8 -4 10 3 5 7 -4 12 -2 12 5 0 7 3 9 7 6 4 -4 2 -12 -4 -18z m240
0 c-8 -8 -13 -7 -18 2 -5 8 -4 10 3 5 7 -4 12 -2 12 5 0 7 3 9 7 6 4 -4 2 -12
-4 -18z"/>
<path d="M869 1223 c-13 -16 -12 -17 4 -4 9 7 17 15 17 17 0 8 -8 3 -21 -13z"/>
<path d="M1109 1223 c-13 -16 -12 -17 4 -4 9 7 17 15 17 17 0 8 -8 3 -21 -13z"/>
<path d="M1349 1223 c-13 -16 -12 -17 4 -4 16 13 21 21 13 21 -2 0 -10 -8 -17
-17z"/>
<path d="M1669 1223 c-13 -16 -12 -17 4 -4 16 13 21 21 13 21 -2 0 -10 -8 -17
-17z"/>
<path d="M2469 1223 c-13 -16 -12 -17 4 -4 9 7 17 15 17 17 0 8 -8 3 -21 -13z"/>
<path d="M2612 1227 c-7 -8 -7 -18 -2 -27 11 -16 11 -15 15 18 3 26 1 27 -13
9z"/>
<path d="M1015 1219 c-4 -6 -5 -12 -2 -15 2 -3 7 2 10 11 7 17 1 20 -8 4z"/>
<path d="M1495 1219 c-4 -6 -5 -12 -2 -15 2 -3 7 2 10 11 7 17 1 20 -8 4z"/>
<path d="M1586 1221 c-4 -5 3 -7 14 -4 23 6 26 13 6 13 -8 0 -17 -4 -20 -9z"/>
<path d="M1815 1219 c-4 -6 -5 -12 -2 -15 2 -3 7 2 10 11 7 17 1 20 -8 4z"/>
<path d="M2050 1224 c0 -7 -19 -10 -49 -8 -37 2 -51 -2 -55 -13 -5 -12 -3 -13
6 -5 20 16 22 16 45 4 15 -8 24 -9 28 -2 5 8 11 8 20 0 17 -14 27 1 14 20 -5
8 -9 10 -9 4z"/>
<path d="M435 1210 c3 -5 8 -10 11 -10 2 0 4 5 4 10 0 6 -5 10 -11 10 -5 0 -7
-4 -4 -10z"/>
<path d="M555 1210 c3 -5 8 -10 11 -10 2 0 4 5 4 10 0 6 -5 10 -11 10 -5 0 -7
-4 -4 -10z"/>
<path d="M580 1209 c0 -5 5 -7 10 -4 6 3 10 8 10 11 0 2 -4 4 -10 4 -5 0 -10
-5 -10 -11z"/>
<path d="M715 1210 c3 -5 8 -10 11 -10 2 0 4 5 4 10 0 6 -5 10 -11 10 -5 0 -7
-4 -4 -10z"/>
<path d="M740 1209 c0 -5 5 -7 10 -4 6 3 10 8 10 11 0 2 -4 4 -10 4 -5 0 -10
-5 -10 -11z"/>
<path d="M835 1210 c3 -5 8 -10 11 -10 2 0 4 5 4 10 0 6 -5 10 -11 10 -5 0 -7
-4 -4 -10z"/>
<path d="M976 1212 c-3 -5 1 -9 9 -9 8 0 15 4 15 9 0 4 -4 8 -9 8 -6 0 -12 -4
-15 -8z"/>
<path d="M1075 1210 c3 -5 8 -10 11 -10 2 0 4 5 4 10 0 6 -5 10 -11 10 -5 0
-7 -4 -4 -10z"/>
<path d="M1195 1210 c3 -5 8 -10 11 -10 2 0 4 5 4 10 0 6 -5 10 -11 10 -5 0
-7 -4 -4 -10z"/>
<path d="M1220 1209 c0 -5 5 -7 10 -4 6 3 10 8 10 11 0 2 -4 4 -10 4 -5 0 -10
-5 -10 -11z"/>
<path d="M1315 1210 c3 -5 8 -10 11 -10 2 0 4 5 4 10 0 6 -5 10 -11 10 -5 0
-7 -4 -4 -10z"/>
<path d="M1456 1212 c-3 -5 1 -9 9 -9 8 0 15 4 15 9 0 4 -4 8 -9 8 -6 0 -12
-4 -15 -8z"/>
<path d="M1555 1210 c3 -5 8 -10 11 -10 2 0 4 5 4 10 0 6 -5 10 -11 10 -5 0
-7 -4 -4 -10z"/>
<path d="M1635 1210 c3 -5 8 -10 11 -10 2 0 4 5 4 10 0 6 -5 10 -11 10 -5 0
-7 -4 -4 -10z"/>
<path d="M1776 1212 c-3 -5 1 -9 9 -9 8 0 15 4 15 9 0 4 -4 8 -9 8 -6 0 -12
-4 -15 -8z"/>
<path d="M1875 1210 c3 -5 8 -10 11 -10 2 0 4 5 4 10 0 6 -5 10 -11 10 -5 0
-7 -4 -4 -10z"/>
<path d="M2166 1203 c-6 -14 -5 -15 5 -6 7 7 10 15 7 18 -3 3 -9 -2 -12 -12z"/>
<path d="M2315 1210 c3 -5 8 -10 11 -10 2 0 4 5 4 10 0 6 -5 10 -11 10 -5 0
-7 -4 -4 -10z"/>
<path d="M2340 1209 c0 -5 5 -7 10 -4 6 3 10 8 10 11 0 2 -4 4 -10 4 -5 0 -10
-5 -10 -11z"/>
<path d="M2435 1210 c3 -5 8 -10 11 -10 2 0 4 5 4 10 0 6 -5 10 -11 10 -5 0
-7 -4 -4 -10z"/>
<path d="M2690 1210 c0 -5 5 -10 11 -10 5 0 7 5 4 10 -3 6 -8 10 -11 10 -2 0
-4 -4 -4 -10z"/>
<path d="M2704 984 c-1 -13 2 -24 8 -24 5 0 6 5 3 10 -3 6 -2 10 4 10 5 0 12
-6 14 -12 3 -8 6 -8 6 -2 1 6 -7 18 -16 27 -17 14 -18 14 -19 -9z"/>
<path d="M170 958 c0 -4 4 -8 9 -8 6 0 12 4 15 8 3 5 -1 9 -9 9 -8 0 -15 -4
-15 -9z"/>
<path d="M1308 943 c6 -2 9 -10 6 -15 -4 -7 -2 -8 4 -4 18 11 14 26 -5 25 -11
0 -13 -3 -5 -6z"/>
<path d="M1388 943 c6 -2 9 -10 6 -15 -4 -7 -2 -8 4 -4 18 11 14 26 -5 25 -11
0 -13 -3 -5 -6z"/>
<path d="M1468 943 c6 -2 9 -10 6 -15 -4 -7 -2 -8 4 -4 18 11 14 26 -5 25 -11
0 -13 -3 -5 -6z"/>
<path d="M1548 943 c6 -2 9 -10 6 -15 -4 -7 -2 -8 4 -4 18 11 14 26 -5 25 -11
0 -13 -3 -5 -6z"/>
<path d="M1628 943 c6 -2 9 -10 6 -15 -4 -7 -2 -8 4 -4 18 11 14 26 -5 25 -11
0 -13 -3 -5 -6z"/>
<path d="M1708 943 c6 -2 9 -10 6 -15 -4 -7 -2 -8 4 -4 18 11 14 26 -5 25 -11
0 -13 -3 -5 -6z"/>
<path d="M1788 943 c6 -2 9 -10 6 -15 -4 -7 -2 -8 4 -4 18 11 14 26 -5 25 -11
0 -13 -3 -5 -6z"/>
<path d="M1868 943 c6 -2 9 -10 6 -15 -4 -7 -2 -8 4 -4 18 11 14 26 -5 25 -11
0 -13 -3 -5 -6z"/>
<path d="M1985 939 c-4 -6 -5 -12 -2 -15 2 -3 7 2 10 11 7 17 1 20 -8 4z"/>
<path d="M243 717 c-21 -25 -27 -57 -9 -54 6 1 10 -5 8 -13 -2 -8 0 -12 4 -8
4 4 13 3 21 -4 10 -8 17 -8 26 1 9 10 8 11 -8 6 -19 -6 -19 -6 -1 6 15 9 20 9
28 -5 5 -9 14 -13 20 -10 7 4 8 2 4 -4 -7 -11 7 -17 29 -12 6 1 7 -2 2 -6 -11
-11 -49 -16 -43 -5 3 5 -1 14 -9 21 -10 9 -15 9 -15 1 0 -6 5 -11 11 -11 5 0
8 -4 4 -9 -5 -9 12 -23 40 -33 6 -1 9 -7 7 -12 -2 -5 4 -4 12 4 14 11 20 7 18
-11 -1 -4 7 -5 18 -2 11 3 18 8 16 12 -3 4 4 7 15 7 18 0 18 -2 5 -12 -21 -15
-20 -23 2 -23 38 -1 49 -5 49 -18 0 -9 -4 -10 -14 -2 -7 6 -13 8 -13 3 0 -5
-5 -2 -10 6 -7 12 -9 11 -8 -6 2 -22 30 -27 57 -10 10 6 12 5 7 -2 -4 -7 -2
-12 3 -12 6 0 11 -8 11 -17 1 -11 7 -4 15 15 8 17 17 32 20 32 3 0 1 -9 -5
-19 -8 -16 -6 -22 7 -31 17 -11 17 -11 1 -6 -10 3 -18 1 -18 -4 0 -6 7 -10 16
-10 9 0 12 -5 8 -12 -5 -9 -2 -9 9 1 18 14 23 26 8 17 -5 -4 -6 4 -3 16 5 18
7 19 10 6 2 -9 9 -15 15 -12 7 2 21 -2 32 -11 20 -15 20 -15 0 -9 -16 5 -17 4
-5 -5 11 -8 12 -11 2 -11 -7 0 -11 -4 -7 -10 9 -15 42 23 39 44 -2 10 0 15 4
12 4 -4 8 -12 8 -17 1 -5 2 -13 3 -18 0 -5 8 -11 16 -15 13 -5 14 -2 4 15 -6
11 -8 23 -5 27 3 3 6 0 6 -8 0 -10 4 -10 18 1 15 13 16 12 3 -3 -8 -11 -9 -18
-3 -18 6 0 16 8 21 18 6 9 11 12 11 5 0 -6 -7 -18 -15 -27 -8 -8 -11 -17 -7
-20 5 -3 15 6 22 19 12 23 40 29 56 12 4 -3 -3 -4 -15 -2 -12 2 -19 0 -16 -6
4 -5 1 -9 -5 -9 -6 0 -8 -5 -4 -11 4 -8 9 -7 15 2 10 17 50 19 62 4 5 -6 7 -4
4 5 -2 8 -9 14 -15 13 -5 -1 -13 4 -16 12 -5 13 -1 13 25 0 16 -9 27 -21 23
-26 -4 -7 1 -7 15 0 24 13 29 26 5 17 -8 -3 -13 -2 -9 3 3 5 2 11 -2 14 -5 2
-1 2 7 -1 8 -2 20 -5 26 -6 6 -1 19 -10 29 -20 10 -9 21 -14 24 -9 12 16 34
14 27 -2 -3 -9 -2 -13 4 -10 6 3 10 13 10 21 0 10 -8 13 -29 9 -19 -3 -31 0
-34 9 -6 14 16 16 29 3 4 -4 13 1 21 11 8 9 12 12 9 5 -8 -15 10 -27 19 -13 3
5 12 10 18 10 7 0 4 -5 -5 -11 -10 -5 -18 -15 -18 -21 0 -7 4 -7 13 0 8 7 18
7 27 2 19 -12 40 -13 40 -1 0 5 -7 8 -16 7 -9 0 -18 5 -20 12 -1 7 0 8 3 2 2
-5 9 -10 14 -10 6 0 7 6 3 13 -5 8 -2 8 9 -2 14 -11 17 -11 17 0 0 7 7 3 16
-9 9 -13 21 -21 27 -19 7 2 19 1 28 -4 10 -5 16 -4 16 5 0 9 -11 12 -31 10
-18 -2 -26 0 -19 4 20 13 94 6 104 -9 5 -9 9 -9 9 -3 0 16 28 26 35 13 4 -5 1
-8 -6 -7 -6 2 -14 -4 -16 -12 -3 -9 -1 -11 4 -5 4 6 17 11 28 11 11 0 24 -5
28 -11 5 -6 7 -4 4 5 -2 8 -9 14 -15 13 -5 -1 -13 4 -16 12 -5 13 -1 13 25 0
16 -9 27 -21 23 -26 -4 -7 1 -7 15 0 24 13 29 26 5 17 -8 -3 -13 -2 -9 3 3 5
2 11 -2 14 -5 2 -1 2 7 -1 8 -2 22 -5 29 -6 8 -2 17 -8 19 -14 2 -7 8 -12 13
-12 5 0 4 10 -2 23 -11 20 -11 21 4 9 9 -8 20 -11 25 -8 5 3 20 -3 32 -14 28
-24 27 -24 27 -5 0 8 -3 12 -7 10 -4 -2 -7 2 -7 10 0 10 4 12 12 5 7 -6 26 -8
43 -6 17 2 41 -3 52 -11 12 -8 24 -12 27 -9 3 3 13 1 23 -4 12 -6 17 -5 17 4
0 9 -11 12 -31 10 -18 -2 -26 0 -19 4 20 13 94 6 104 -9 5 -9 9 -9 9 -3 0 16
28 26 35 13 4 -5 1 -8 -6 -7 -6 2 -14 -4 -16 -12 -3 -9 -1 -11 4 -5 4 6 17 11
28 11 11 0 24 -5 28 -11 5 -6 7 -4 4 5 -2 8 -9 14 -15 13 -5 -1 -13 4 -16 12
-5 13 -1 13 25 0 16 -9 27 -21 23 -26 -4 -7 1 -7 15 0 24 13 29 26 5 17 -8 -3
-13 -2 -9 3 3 5 2 11 -2 14 -5 2 -1 2 7 -1 8 -2 20 -5 26 -6 6 -1 19 -10 29
-20 10 -9 21 -14 24 -9 12 16 34 14 27 -2 -3 -9 -2 -13 4 -10 6 3 10 13 10 21
0 10 -8 13 -29 9 -19 -3 -31 0 -34 9 -6 14 16 16 29 3 4 -4 13 1 21 11 8 9 12
12 9 5 -8 -15 10 -27 19 -13 3 5 12 10 18 10 7 0 4 -5 -5 -11 -10 -5 -18 -15
-18 -21 0 -7 4 -7 13 0 8 7 18 7 27 2 19 -12 40 -13 40 -1 0 5 -7 8 -16 7 -9
0 -18 5 -20 12 -1 7 0 8 3 2 2 -5 9 -10 14 -10 6 0 7 6 3 12 -5 9 -2 9 9 -1
14 -11 17 -11 17 0 0 7 7 3 16 -9 9 -13 21 -21 27 -19 7 2 19 1 28 -4 10 -5
16 -4 16 5 0 8 -11 12 -28 11 -16 -1 -26 2 -24 6 3 4 -1 9 -7 12 -7 2 -1 4 14
3 14 0 24 -4 22 -8 -3 -4 8 -6 23 -4 16 1 36 -4 46 -12 15 -13 19 -13 39 4 15
13 18 14 10 3 -10 -14 -10 -18 3 -23 9 -3 13 -2 10 4 -3 5 5 20 19 33 20 19
23 26 13 37 -10 10 -9 11 3 4 8 -5 24 -10 34 -11 29 -5 32 -12 10 -29 -18 -14
-18 -15 4 -4 14 7 21 17 18 25 -3 8 -1 17 4 20 6 4 10 1 10 -4 0 -6 5 -11 10
-11 7 0 7 6 0 19 -9 18 -8 19 20 11 28 -8 34 -6 31 13 0 4 4 7 10 7 5 0 7 6 3
13 -5 8 -2 7 9 -2 10 -8 20 -11 24 -7 3 3 2 6 -4 6 -6 0 -13 6 -16 14 -4 11 1
13 19 10 18 -3 23 -1 18 7 -4 7 -3 9 2 6 6 -3 16 -2 24 3 9 5 20 4 29 -3 12
-9 13 -9 8 0 -5 7 1 17 13 23 11 6 18 15 15 21 -8 12 8 12 21 -1 7 -7 11 -6
11 4 0 8 -4 13 -9 10 -4 -3 -8 3 -8 13 0 15 -2 16 -10 3 -5 -8 -10 -10 -10 -5
0 6 5 16 12 23 16 16 -4 16 -22 0 -12 -11 -12 -10 -1 5 16 20 36 18 36 -4 0
-8 10 -14 25 -14 20 -1 26 4 26 22 0 12 -2 20 -5 18 -2 -3 -10 0 -18 7 -8 6
-13 7 -11 2 2 -5 -1 -10 -7 -11 -5 -1 -9 6 -7 15 2 15 1 15 -8 2 -9 -13 -11
-13 -21 0 -9 13 -10 13 -6 -2 3 -9 -1 -19 -9 -22 -21 -8 -24 -8 -24 5 0 5 5 7
12 3 7 -4 8 -3 4 4 -4 6 -14 8 -23 5 -12 -5 -14 -3 -8 7 5 9 4 11 -3 6 -9 -5
-8 -15 3 -36 10 -19 11 -31 5 -35 -6 -4 -10 -3 -9 2 4 21 -2 33 -17 33 -8 0
-13 4 -10 8 2 4 -4 14 -16 21 -11 7 -17 8 -14 3 3 -6 -1 -13 -10 -16 -22 -8
-26 -8 -19 3 3 5 0 13 -6 17 -8 4 -9 3 -5 -4 4 -7 2 -12 -3 -12 -6 0 -11 -5
-11 -11 0 -5 5 -7 12 -3 7 5 8 3 3 -5 -5 -9 -10 -10 -18 -2 -13 13 -41 15 -33
2 3 -4 -8 -7 -25 -5 -21 3 -28 0 -23 -8 4 -7 3 -8 -5 -4 -9 6 -9 11 -1 21 20
24 2 36 -26 19 -19 -13 -24 -14 -24 -3 0 10 -3 10 -8 3 -4 -6 -15 -10 -25 -8
-13 2 -17 -2 -13 -12 3 -9 2 -12 -5 -9 -6 4 -17 -1 -25 -11 -10 -14 -14 -15
-12 -4 2 8 9 20 17 26 8 6 11 17 8 25 -4 11 -6 10 -6 -2 -1 -9 -10 -19 -21
-22 -11 -3 -18 -1 -15 3 3 5 0 12 -6 16 -7 4 -9 3 -6 -2 3 -5 -4 -21 -14 -34
-20 -24 -20 -24 -9 -2 17 34 7 36 -24 5 l-27 -27 12 27 c10 22 10 30 -1 40
-10 9 -11 9 -6 -1 9 -15 -12 -44 -26 -36 -5 3 -16 -2 -24 -12 -10 -14 -14 -15
-12 -4 2 8 9 20 17 26 8 6 11 17 8 25 -4 11 -6 10 -6 -2 -1 -9 -10 -19 -21
-22 -11 -3 -18 -1 -15 3 3 5 0 12 -6 16 -7 4 -9 3 -6 -2 3 -5 -4 -21 -14 -34
-20 -24 -20 -24 -9 -2 17 34 7 36 -24 5 l-27 -27 12 27 c10 22 10 30 -1 40
-10 9 -11 9 -6 0 14 -24 -5 -35 -27 -16 -11 10 -17 12 -12 4 6 -10 2 -12 -14
-6 -13 4 -21 2 -21 -5 0 -6 5 -8 10 -5 16 10 12 -1 -6 -15 -12 -11 -15 -11
-12 1 2 9 -4 13 -16 11 -10 -2 -15 1 -12 6 3 6 0 12 -8 15 -11 4 -13 -1 -10
-18 2 -13 0 -26 -6 -30 -6 -4 -7 1 -3 11 4 12 3 15 -5 10 -8 -5 -10 -1 -5 11
6 15 4 16 -9 6 -8 -7 -18 -10 -21 -6 -4 3 -7 1 -7 -6 0 -7 -5 -9 -11 -5 -8 4
-3 12 12 20 13 7 20 13 16 14 -5 0 -18 -5 -29 -11 -18 -10 -20 -9 -15 5 4 11
3 15 -4 11 -6 -4 -8 -12 -6 -19 3 -6 -2 -17 -10 -25 -13 -12 -14 -11 -8 10 l7
24 -24 -25 c-13 -14 -19 -20 -14 -13 6 9 5 18 -2 25 -12 12 -35 1 -27 -12 3
-5 2 -11 -3 -14 -13 -8 -11 27 2 43 7 9 1 8 -16 -3 -25 -17 -42 -36 -18 -21 6
3 10 1 10 -4 0 -14 -17 -14 -25 -1 -4 6 -1 18 7 27 12 16 11 16 -11 0 -20 -13
-28 -14 -40 -4 -11 9 -13 9 -8 0 4 -7 -1 -14 -13 -18 -11 -4 -17 -11 -14 -17
4 -7 2 -8 -5 -4 -9 6 -9 11 0 22 14 17 -2 19 -20 2 -12 -11 -13 -10 -7 6 5 16
4 17 -9 6 -8 -7 -13 -16 -10 -20 3 -4 -3 -14 -13 -21 -15 -12 -16 -12 -6 1 9
13 10 24 5 45 0 3 -11 1 -23 -6 -18 -10 -20 -9 -15 5 4 11 3 15 -4 11 -6 -4
-8 -12 -6 -19 3 -6 -2 -17 -10 -25 -13 -12 -14 -11 -8 10 l7 24 -24 -25 c-13
-14 -19 -20 -14 -13 6 9 5 18 -2 25 -12 12 -35 1 -27 -12 3 -5 2 -11 -3 -14
-12 -7 -12 26 0 41 7 9 4 9 -16 0 -14 -7 -26 -16 -26 -20 0 -5 5 -5 10 -2 5 3
10 1 10 -5 0 -7 -7 -9 -16 -6 -10 4 -22 -1 -30 -11 -11 -14 -14 -14 -12 -3 2
8 9 20 17 26 8 6 11 17 8 25 -4 11 -6 10 -6 -2 -1 -9 -10 -19 -21 -22 -11 -3
-18 -1 -15 3 3 5 0 12 -6 16 -7 4 -9 3 -6 -2 3 -5 -4 -21 -14 -34 -20 -24 -20
-24 -9 -2 17 34 7 36 -24 5 l-27 -27 12 27 c10 22 10 30 -1 40 -10 9 -11 9 -6
-1 9 -15 -12 -44 -26 -36 -5 3 -16 -2 -24 -12 -10 -14 -14 -15 -12 -4 2 8 9
20 17 26 8 6 11 17 8 25 -4 11 -6 10 -6 -2 -1 -9 -10 -19 -21 -22 -11 -3 -18
-1 -15 3 3 5 0 12 -6 16 -7 4 -9 3 -6 -2 3 -5 -4 -21 -14 -34 -20 -24 -20 -24
-9 -2 17 34 7 36 -24 5 l-27 -27 12 27 c9 20 9 31 2 38 -8 8 -11 6 -10 -6 1
-9 -8 -21 -20 -26 -18 -7 -21 -5 -16 9 6 15 5 16 -12 2 -10 -8 -16 -10 -12 -3
4 6 2 15 -4 19 -7 4 -9 3 -6 -3 4 -6 1 -18 -6 -28 -12 -15 -13 -14 -11 13 2
31 2 31 -22 15 -19 -12 -24 -13 -24 -2 0 11 -2 11 -10 -1 -5 -8 -10 -10 -10
-5 0 6 -11 -3 -25 -20 l-26 -30 21 38 c11 20 16 37 11 37 -4 0 -13 -10 -19
-22 -6 -13 -11 -17 -11 -10 -1 7 -5 11 -11 7 -5 -3 -7 -13 -4 -23 5 -15 4 -15
-6 1 -9 14 -9 22 2 35 12 15 11 16 -4 4 -9 -8 -23 -10 -29 -6 -8 4 -9 3 -5 -4
4 -7 2 -12 -4 -12 -6 0 -9 -4 -6 -9 3 -4 -8 -7 -25 -5 -21 3 -28 0 -23 -8 4
-7 3 -8 -5 -4 -9 6 -9 11 -1 21 20 25 1 36 -28 17 -25 -16 -26 -16 -19 1 4 12
3 16 -4 12 -6 -4 -8 -12 -6 -19 3 -6 -2 -17 -10 -25 -13 -12 -14 -11 -8 10 l7
24 -24 -25 c-13 -14 -19 -20 -14 -13 6 9 5 18 -2 25 -14 14 -32 1 -26 -20 5
-15 4 -15 -6 1 -9 14 -9 22 2 34 11 14 8 13 -14 -1 -16 -10 -28 -14 -28 -10
-1 5 -6 0 -13 -11 -14 -24 -34 -30 -34 -10 0 7 6 11 14 8 8 -3 13 2 13 13 0
16 -2 17 -10 4 -5 -8 -10 -11 -10 -6 0 5 -7 3 -15 -4 -8 -7 -15 -9 -15 -4 0 4
-7 -1 -16 -12 -14 -18 -15 -18 -4 4 6 12 15 22 20 22 6 0 10 5 10 12 0 9 -3 9
-12 0 -15 -15 -31 -16 -22 0 4 7 3 8 -4 4 -6 -4 -9 -13 -5 -21 3 -10 -1 -15
-12 -15 -10 0 -13 5 -9 12 5 7 3 8 -6 3 -10 -6 -12 -4 -7 9 5 14 3 15 -13 6
-25 -13 -33 -13 -24 3 4 6 -2 3 -14 -7 -24 -21 -28 -41 -10 -52 8 -5 9 0 6 14
-4 14 -2 20 4 15 6 -3 8 -2 5 3 -3 5 3 10 13 10 11 0 17 -2 15 -5 -3 -2 3 -10
13 -18 15 -13 15 -13 -5 -4 -28 14 -33 14 -33 -3 0 -7 -8 -20 -17 -27 -14 -12
-16 -12 -8 0 6 10 4 12 -5 6 -8 -5 -11 -4 -6 3 3 6 2 14 -4 17 -8 5 -6 15 5
31 20 30 15 31 -12 1z m394 -11 c-8 -8 -17 -12 -21 -9 -3 3 2 12 12 19 22 16
29 9 9 -10z m1680 0 c-8 -8 -17 -12 -21 -9 -3 3 2 12 12 19 22 16 29 9 9 -10z
m-1443 -1 c-4 -8 -11 -12 -16 -9 -6 4 -5 10 3 15 19 12 19 11 13 -6z m560 0
c-4 -8 -11 -12 -16 -9 -6 4 -5 10 3 15 19 12 19 11 13 -6z m1052 3 c-2 -14 -8
-18 -28 -18 -6 0 -3 7 8 15 23 18 23 18 20 3z m-2004 -20 c-7 -7 -12 -8 -12
-2 0 14 12 26 19 19 2 -3 -1 -11 -7 -17z m355 7 c0 -6 -6 -12 -12 -12 -6 0
-12 6 -12 12 0 6 6 12 12 12 6 0 12 -6 12 -12z m706 0 c-3 -9 -8 -14 -10 -11
-3 3 -2 9 2 15 9 16 15 13 8 -4z m31 -1 c3 -8 2 -12 -4 -9 -6 3 -10 10 -10 16
0 14 7 11 14 -7z m336 12 c0 -2 -8 -10 -17 -17 -16 -13 -17 -12 -4 4 13 16 21
21 21 13z m367 -11 c0 -6 -6 -12 -12 -12 -6 0 -12 6 -12 12 0 6 6 12 12 12 6
0 12 -6 12 -12z m372 -6 c-16 -10 -23 -4 -14 10 3 6 11 8 17 5 6 -4 5 -9 -3
-15z m-78 -66 c-14 -10 -51 -1 -51 13 0 2 8 0 19 -5 22 -12 31 -5 32 23 0 21
1 21 8 1 6 -14 3 -24 -8 -32z m-2170 -40 c12 -16 12 -17 -2 -6 -9 7 -19 10
-22 6 -4 -3 -7 -1 -7 5 0 17 16 15 31 -5z m2034 -43 c3 -6 -1 -7 -9 -4 -18 7
-21 14 -7 14 6 0 13 -4 16 -10z m-948 -55 c0 -8 -4 -12 -9 -9 -5 3 -6 10 -3
15 9 13 12 11 12 -6z m743 -19 c0 -3 -4 -8 -10 -11 -5 -3 -10 -1 -10 4 0 6 5
11 10 11 6 0 10 -2 10 -4z"/>
<path d="M684 732 c3 -5 0 -12 -6 -15 -7 -2 -10 -7 -7 -11 3 -4 12 0 18 8 9
11 9 16 0 22 -7 4 -9 3 -5 -4z"/>
<path d="M2364 732 c3 -5 0 -12 -6 -15 -7 -2 -10 -7 -7 -11 3 -4 12 0 18 8 9
11 9 16 0 22 -7 4 -9 3 -5 -4z"/>
<path d="M950 720 c0 -5 5 -10 11 -10 5 0 7 5 4 10 -3 6 -8 10 -11 10 -2 0 -4
-4 -4 -10z"/>
<path d="M1110 709 c0 -5 5 -7 10 -4 6 3 10 8 10 11 0 2 -4 4 -10 4 -5 0 -10
-5 -10 -11z"/>
<path d="M2070 709 c0 -5 5 -7 10 -4 6 3 10 8 10 11 0 2 -4 4 -10 4 -5 0 -10
-5 -10 -11z"/>
<path d="M2525 580 c-3 -6 1 -7 9 -4 18 7 21 14 7 14 -6 0 -13 -4 -16 -10z"/>
<path d="M2310 485 c-8 -9 -8 -15 -2 -15 12 0 26 19 19 26 -2 2 -10 -2 -17
-11z"/>
<path d="M603 450 c-11 -16 -10 -18 1 -14 15 6 30 34 18 34 -4 0 -13 -9 -19
-20z"/>
<path d="M1110 455 c0 -5 5 -17 10 -25 5 -8 10 -10 10 -5 0 6 -5 17 -10 25 -5
8 -10 11 -10 5z"/>
<path d="M1214 449 c-4 -7 -3 -9 4 -5 5 3 13 0 15 -6 4 -9 6 -10 6 -1 1 17
-16 25 -25 12z"/>
<path d="M1456 451 c-3 -5 1 -11 9 -14 9 -4 12 -1 8 9 -6 16 -10 17 -17 5z"/>
<path d="M1543 452 c-9 -6 -7 -11 7 -20 12 -7 20 -8 20 -2 0 5 -5 10 -11 10
-5 0 -7 5 -4 10 7 12 4 12 -12 2z"/>
<path d="M1581 444 c0 -11 3 -14 6 -6 3 7 2 16 -1 19 -3 4 -6 -2 -5 -13z"/>
<path d="M1694 449 c-4 -7 -3 -9 4 -5 5 3 13 0 15 -6 4 -9 6 -10 6 -1 1 17
-16 25 -25 12z"/>
<path d="M2070 455 c0 -5 5 -17 10 -25 5 -8 10 -10 10 -5 0 6 -5 17 -10 25 -5
8 -10 11 -10 5z"/>
<path d="M2177 453 c-3 -5 4 -15 16 -23 21 -12 21 -12 7 6 -8 10 -15 20 -16
22 -1 2 -4 -1 -7 -5z"/>
<path d="M2296 443 c-6 -14 -5 -15 5 -6 7 7 10 15 7 18 -3 3 -9 -2 -12 -12z"/>
<path d="M915 430 c3 -5 8 -10 11 -10 2 0 4 5 4 10 0 6 -5 10 -11 10 -5 0 -7
-4 -4 -10z"/>
<path d="M1036 432 c-2 -4 4 -8 14 -8 10 0 16 4 14 8 -3 4 -9 8 -14 8 -5 0
-11 -4 -14 -8z"/>
<path d="M1395 430 c3 -5 8 -10 11 -10 2 0 4 5 4 10 0 6 -5 10 -11 10 -5 0 -7
-4 -4 -10z"/>
<path d="M1875 430 c3 -5 8 -10 11 -10 2 0 4 5 4 10 0 6 -5 10 -11 10 -5 0 -7
-4 -4 -10z"/>
<path d="M1996 432 c-2 -4 4 -8 14 -8 10 0 16 4 14 8 -3 4 -9 8 -14 8 -5 0
-11 -4 -14 -8z"/>
<path d="M1119 239 c-7 -37 -7 -40 6 -29 9 8 14 7 18 -4 4 -9 1 -18 -5 -22 -7
-5 -8 -2 -3 6 6 10 4 12 -8 7 -10 -4 -20 0 -26 11 -10 16 -10 16 -11 0 0 -9 5
-20 10 -23 6 -4 8 -15 5 -24 -4 -14 0 -18 17 -18 42 -1 49 -3 43 -13 -3 -5 0
-10 7 -11 7 0 4 -4 -7 -9 -16 -7 -17 -9 -3 -9 9 -1 21 6 26 15 6 11 11 13 16
5 4 -6 2 -11 -3 -11 -6 0 -11 -7 -11 -16 0 -13 3 -14 14 -5 10 8 16 9 21 1 3
-5 1 -10 -4 -10 -6 0 -11 -4 -11 -8 0 -5 7 -9 15 -9 8 0 12 4 9 9 -3 4 0 8 7
8 8 0 8 5 -2 18 -15 19 38 -24 59 -47 14 -18 16 -35 2 -26 -6 3 -7 -1 -3 -10
5 -13 7 -14 14 -3 7 10 9 10 9 1 0 -7 5 -13 11 -13 5 0 7 6 3 12 -6 10 -3 9 9
0 19 -16 229 -13 225 3 -2 6 -10 9 -18 8 -8 -1 -5 6 9 16 15 12 20 20 12 24
-8 4 -7 5 1 2 7 -1 12 -8 10 -15 -3 -11 0 -11 12 0 13 10 16 10 16 0 0 -8 3
-10 7 -6 5 4 -1 14 -12 23 -19 15 -19 15 4 8 17 -5 21 -4 16 5 -6 9 -3 9 13 1
17 -9 21 -7 27 17 l7 27 14 -25 14 -25 -4 27 c-3 15 0 31 6 34 7 4 8 2 4 -4
-4 -7 -2 -12 4 -12 6 0 8 -5 4 -11 -3 -6 5 -4 18 5 14 9 29 13 34 9 5 -5 5 -4
1 1 -11 14 -37 16 -37 3 0 -5 -3 -8 -6 -4 -3 3 -1 14 5 24 6 11 11 13 11 5 0
-7 5 -10 10 -7 6 4 7 11 4 17 -4 7 -2 8 4 4 7 -4 12 0 13 11 0 11 3 13 6 5 3
-7 -1 -19 -7 -27 -8 -10 -9 -15 -2 -15 18 0 31 34 21 53 -8 13 -6 17 7 17 10
0 15 3 11 6 -3 4 -14 3 -24 -1 -10 -5 -22 -9 -28 -9 -5 -1 -10 -6 -10 -13 0
-6 -3 -14 -7 -18 -8 -8 -4 13 7 37 4 10 12 15 18 11 6 -3 7 -1 3 6 -6 9 -11 9
-21 1 -7 -6 -24 -9 -38 -6 -21 4 -25 1 -20 -12 6 -15 5 -15 -11 -3 -15 13 -19
13 -28 0 -8 -11 -9 -11 -4 3 3 10 1 18 -4 18 -6 0 -10 -10 -10 -22 0 -18 -2
-20 -9 -8 -6 8 -8 17 -5 21 2 4 -1 11 -7 15 -8 4 -9 3 -5 -4 4 -7 1 -12 -8
-12 -27 0 -31 2 -28 11 1 5 -2 9 -8 9 -5 0 -10 -5 -10 -10 0 -17 -51 -33 -64
-20 -8 8 -7 11 3 8 7 -2 16 4 18 12 4 12 3 12 -5 2 -5 -8 -12 -13 -16 -13 -24
3 -28 0 -17 -12 8 -10 7 -14 -4 -14 -8 0 -11 5 -8 10 4 6 0 8 -10 4 -10 -3
-17 -2 -17 2 0 15 -33 22 -41 9 -4 -6 -5 -16 -3 -20 3 -4 -2 -5 -11 -1 -13 5
-14 7 -3 14 10 7 9 9 -4 9 -10 0 -18 -4 -18 -10 0 -5 -5 -10 -11 -10 -6 0 -8
10 -5 23 3 12 3 16 0 10 -3 -7 -13 -13 -22 -13 -15 0 -15 -2 -2 -10 12 -7 10
-9 -7 -7 -12 0 -19 5 -17 9 6 9 7 9 -56 11 -25 1 -50 6 -57 10 -6 4 -15 3 -18
-3 -5 -8 -11 -7 -21 1 -8 6 -14 10 -15 8z m60 -37 c-1 -15 -2 -15 -6 1 -2 9
-9 14 -15 11 -7 -4 -8 -2 -4 5 10 15 26 4 25 -17z m35 10 c3 -5 -1 -9 -9 -9
-8 0 -15 4 -15 9 0 4 4 8 9 8 6 0 12 -4 15 -8z m47 -19 c-12 -20 -14 -14 -5
12 4 9 9 14 11 11 3 -2 0 -13 -6 -23z m157 2 c-3 -3 -9 2 -12 12 -6 14 -5 15
5 6 7 -7 10 -15 7 -18z m145 12 c3 -8 -1 -14 -8 -14 -7 0 -11 6 -8 14 6 16 10
16 16 0z m151 -3 c3 -8 2 -12 -4 -9 -6 3 -10 10 -10 16 0 14 7 11 14 -7z
m-104 2 c0 -2 -7 -7 -16 -10 -8 -3 -12 -2 -9 4 6 10 25 14 25 6z"/>
<path d="M1805 190 c3 -5 8 -10 11 -10 2 0 4 5 4 10 0 6 -5 10 -11 10 -5 0 -7
-4 -4 -10z"/>
<path d="M1076 176 c10 -8 21 -12 24 -10 5 6 -21 24 -34 24 -6 0 -1 -6 10 -14z"/>
<path d="M1073 139 c-2 -23 3 -25 10 -4 4 8 3 16 -1 19 -4 3 -9 -4 -9 -15z"/>
<path d="M1806 148 c3 -5 10 -6 15 -3 13 9 11 12 -6 12 -8 0 -12 -4 -9 -9z"/>
<path d="M1250 71 c0 -5 7 -12 16 -15 8 -3 12 -11 8 -17 -4 -8 -3 -9 4 -5 17
10 15 19 -8 34 -11 7 -20 8 -20 3z"/>
<path d="M1636 57 c3 -10 9 -15 12 -12 3 3 0 11 -7 18 -10 9 -11 8 -5 -6z"/>
</g>
</svg>
