<svg width="21" height="18" viewBox="0 0 21 18" fill="none" xmlns="http://www.w3.org/2000/svg">
<path fill-rule="evenodd" clip-rule="evenodd" d="M0 1C0 0.447715 0.447715 0 1 0H20C20.5523 0 21 0.447715 21 1C21 1.55228 20.5523 2 20 2H1C0.447715 2 0 1.55228 0 1Z" fill="white"/>
<path fill-rule="evenodd" clip-rule="evenodd" d="M0 9C0 8.44772 0.447715 8 1 8H20C20.5523 8 21 8.44772 21 9C21 9.55228 20.5523 10 20 10H1C0.447715 10 0 9.55228 0 9Z" fill="white"/>
<path fill-rule="evenodd" clip-rule="evenodd" d="M0 17C0 16.4477 0.447715 16 1 16H20C20.5523 16 21 16.4477 21 17C21 17.5523 20.5523 18 20 18H1C0.447715 18 0 17.5523 0 17Z" fill="white"/>
</svg>
